<?xml version="1.0" encoding="UTF-8"?>
<svg version="1.1" xmlns="http://www.w3.org/2000/svg" width="400" height="400">
<path d="M0 0 C0.82278946 -0.00701431 1.64557892 -0.01402863 2.49330139 -0.02125549 C5.13621542 -0.03867925 7.77890564 -0.04510821 10.421875 -0.046875 C11.32304047 -0.04754974 12.22420593 -0.04822449 13.15267944 -0.04891968 C26.05400613 -0.03353717 38.55530544 0.25906559 51.171875 3.203125 C51.93016602 3.36941406 52.68845703 3.53570312 53.46972656 3.70703125 C102.85486093 14.7132106 147.17828656 45.48187928 174.3984375 88.1953125 C180.40775501 97.87073806 185.76244341 107.69796757 190.171875 118.203125 C190.68105469 119.39164062 191.19023437 120.58015625 191.71484375 121.8046875 C195.05972837 129.94810474 197.34619579 138.27941117 199.421875 146.828125 C199.6681665 147.84052246 199.91445801 148.85291992 200.16821289 149.89599609 C203.53169046 164.33280863 204.58032126 178.31379689 204.546875 193.078125 C204.54605927 194.43423889 204.54605927 194.43423889 204.54522705 195.81774902 C204.50530704 210.27645723 203.62967316 224.10961662 200.171875 238.203125 C199.85839111 239.52932861 199.85839111 239.52932861 199.53857422 240.88232422 C187.55830146 290.355915 155.37694449 333.19922028 112.296875 359.953125 C85.35276154 376.14164987 54.15953903 387.12473462 22.484375 387.44140625 C21.67247711 387.45115479 20.86057922 387.46090332 20.02407837 387.47094727 C2.04476629 387.64236451 -15.2403731 387.39218232 -32.828125 383.203125 C-33.6005957 383.03184082 -34.37306641 382.86055664 -35.16894531 382.68408203 C-78.3614571 372.97276351 -117.68326394 345.53830086 -143.828125 310.203125 C-144.22773438 309.66429687 -144.62734375 309.12546875 -145.0390625 308.5703125 C-175.30306502 267.338148 -187.93511343 214.42945243 -180.23608398 163.85839844 C-175.24488143 134.26076148 -164.65469944 105.53726448 -146.828125 81.203125 C-146.07144531 80.16285156 -145.31476563 79.12257813 -144.53515625 78.05078125 C-138.50595092 69.92045245 -131.81277564 62.51752309 -124.828125 55.203125 C-124.22613281 54.54828125 -123.62414062 53.8934375 -123.00390625 53.21875 C-104.88364057 34.04869563 -80.08283823 20.70400165 -55.828125 11.203125 C-55.16635254 10.94160645 -54.50458008 10.68008789 -53.82275391 10.41064453 C-37.0332433 3.9156956 -18.00194488 0.10274317 0 0 Z " fill="#FEFEFE" transform="translate(186.828125,6.796875)"/>
<path d="M0 0 C4.73000019 3.95104228 9.20942619 8.06437456 13.55859375 12.42919922 C14.1726004 13.04145355 14.78660706 13.65370789 15.41921997 14.28451538 C17.42781842 16.28874915 19.43277937 18.29657555 21.4375 20.3046875 C22.84547593 21.71198876 24.25360019 23.11914163 25.66186523 24.52615356 C28.6053062 27.46812477 31.54694277 30.41188512 34.48730469 33.35693359 C38.23945949 37.11477995 41.9960793 40.8681255 45.7540741 44.62013054 C48.66081369 47.52324052 51.56514746 50.42874797 54.46878052 53.33496475 C55.85221144 54.71905859 57.23637402 56.10242155 58.62130737 57.48501205 C71.09010583 69.93734234 71.09010583 69.93734234 76.36550903 76.14089966 C79.86262379 80.11858285 83.67856661 83.7993276 87.43359375 87.53125 C88.31153091 88.40777222 89.18946808 89.28429443 90.0940094 90.18737793 C92.87281496 92.96062796 95.65509397 95.73036282 98.4375 98.5 C100.33319865 100.39010805 102.22809783 102.28101518 104.12304688 104.171875 C108.74605189 108.78391004 113.37190657 113.39307141 118 118 C113.32481266 123.66219832 108.27389766 128.84690618 103.06056404 134.01460075 C101.5644852 135.49772762 100.07171765 136.98412038 98.57969666 138.47132874 C94.87498237 142.16278713 91.16481712 145.84875085 87.45477295 149.53485107 C84.31113594 152.65861816 81.1696516 155.78452146 78.03088188 158.9131794 C76.57352839 160.36413994 75.11315397 161.81200946 73.65260315 163.25975037 C69.20560987 167.69044127 64.92515239 172.17080993 60.83882141 176.93409729 C56.91028034 181.3477851 52.66100541 185.45991734 48.47265625 189.625 C47.47352972 190.62225677 46.4746272 191.61973802 45.47593689 192.61743164 C42.8725305 195.21705679 40.2661333 197.81366231 37.65905762 200.40960693 C34.98895726 203.06939763 32.32175723 205.7320934 29.65429688 208.39453125 C24.43899962 213.59916888 19.22053284 218.8006134 14 224 C8.03874778 219.05817281 2.57964959 213.71498171 -2.88256836 208.23095703 C-3.85874287 207.25449993 -4.83513866 206.27826399 -5.81173706 205.30223083 C-8.44364693 202.67060613 -11.07247704 200.03592479 -13.70073771 197.40065622 C-16.45490298 194.64021058 -19.21192841 191.8826245 -21.96864319 189.12472534 C-27.18010986 183.91015911 -32.38902365 178.69305057 -37.5970102 173.47500885 C-43.52977656 167.5310385 -49.46540599 161.58993069 -55.40126979 155.64905381 C-67.60402023 143.43587015 -79.80319582 131.2191219 -92 119 C-85.15494097 110.96277992 -78.00180963 103.26265538 -70.6730957 95.66381836 C-69.01909568 93.93281254 -67.38151513 92.18596408 -65.76098633 90.42358398 C-50.78128243 74.16480994 -50.78128243 74.16480994 -41.60969543 73.77159119 C-38.3130729 73.913659 -35.23167243 74.32588179 -32 75 C-33.44580966 78.31613882 -35.24829792 80.49185728 -37.80712891 83.03417969 C-38.58778717 83.81468689 -39.36844543 84.59519409 -40.17276001 85.39935303 C-41.01551483 86.23178528 -41.85826965 87.06421753 -42.7265625 87.921875 C-43.58937836 88.78186096 -44.45219421 89.64184692 -45.34115601 90.52789307 C-48.09778029 93.2733231 -50.86127799 96.0117169 -53.625 98.75 C-55.49524857 100.61021783 -57.36504589 102.47088946 -59.234375 104.33203125 C-63.8176936 108.89329945 -68.40667478 113.44881011 -73 118 C-67.96118734 124.14775529 -62.39904645 129.71861814 -56.76419258 135.31097221 C-55.03289827 137.02935178 -53.30487944 138.75096777 -51.57762146 140.47340393 C-47.28856737 144.74917962 -42.99406982 149.01947431 -38.69970703 153.28991699 C-35.06286441 156.90691881 -31.42815237 160.5260371 -27.79615593 164.14790535 C-26.10612479 165.83152587 -24.41307578 167.51206895 -22.71986389 169.19248962 C-17.78816229 174.10097263 -12.9584776 179.04280482 -8.43586731 184.33705139 C-6.44554143 186.64214577 -4.32042662 188.79212804 -2.16015625 190.9375 C-1.32548828 191.76894531 -0.49082031 192.60039062 0.36914062 193.45703125 C1.21669922 194.29621094 2.06425781 195.13539063 2.9375 196 C3.81212891 196.87011719 4.68675781 197.74023438 5.58789062 198.63671875 C7.72297449 200.76013549 9.86037205 202.88116378 12 205 C15.10233575 203.61785814 17.23327839 202.02252793 19.63874817 199.63540649 C20.34406677 198.94006302 21.04938538 198.24471954 21.77607727 197.52830505 C22.53937851 196.76566849 23.30267975 196.00303192 24.08911133 195.21728516 C24.90084808 194.41387192 25.71258484 193.61045868 26.54891968 192.78269958 C29.23211165 190.12361757 31.90756851 187.45692239 34.58203125 184.7890625 C36.439512 182.94054413 38.29707225 181.09210564 40.15470886 179.2437439 C44.04667596 175.36913022 47.93338626 171.48929094 51.81811523 167.60742188 C56.31208161 163.11709781 60.81903221 158.6400981 65.33203107 154.16891062 C69.67206031 149.86769016 73.99829086 145.55283736 78.31952477 141.23273849 C80.16112626 139.39535717 82.00687024 137.56211851 83.85672951 135.7330513 C86.43568033 133.18080232 88.99852837 130.61340354 91.55786133 128.04150391 C92.33128372 127.2829158 93.10470612 126.5243277 93.90156555 125.74275208 C94.59278503 125.04176895 95.28400452 124.34078583 95.99617004 123.61856079 C96.6039671 123.01277506 97.21176416 122.40698933 97.83797932 121.78284645 C99.19249124 120.07903767 99.19249124 120.07903767 98.92778397 118.028862 C97.73594219 115.42256292 96.22491744 113.91045579 94.1592865 111.91964722 C93.33332474 111.11557434 92.50736298 110.31150146 91.65637207 109.48306274 C90.28720642 108.17249405 90.28720642 108.17249405 88.89038086 106.83544922 C87.92396215 105.89934998 86.95832868 104.96243949 85.99342346 104.02478027 C83.91400539 102.00569239 81.83078591 99.99063442 79.7450695 97.97805405 C76.44138067 94.7866792 73.15724872 91.57568188 69.87757874 88.35964966 C69.32329742 87.81628051 68.7690161 87.27291136 68.19793838 86.71307647 C67.06439244 85.60174943 65.93089675 84.49037113 64.79745018 83.37894273 C57.16322779 75.89437228 49.5176148 68.42272684 41.81518555 61.00830078 C36.61774878 56.00491415 31.45357042 50.96967707 26.32455927 45.89614117 C23.61218564 43.21565337 20.88615588 40.55369027 18.11863518 37.93008041 C-0.94382825 19.82979886 -0.94382825 19.82979886 -1.44435024 9.99991035 C-1.29287548 6.53495378 -0.81175366 3.37354096 0 0 Z " fill="#F58323" transform="translate(185,38)"/>
<path d="M0 0 C3.60162028 1.52606178 5.90619179 3.65840126 8.6574707 6.41455078 C9.57555008 7.32955353 10.49362946 8.24455627 11.43952942 9.18728638 C12.43512484 10.18978487 13.43053749 11.19246489 14.42578125 12.1953125 C15.456681 13.22740583 16.48795231 14.25912814 17.51957703 15.29049683 C19.68209946 17.45458267 21.84122567 19.62198184 23.99780273 21.79199219 C26.74284632 24.55392928 29.49432909 27.30933536 32.24821186 30.06245613 C34.38052847 32.19504683 36.51021203 34.33025107 38.63905907 36.46630478 C39.65142536 37.4818237 40.66437238 38.49676407 41.67794228 39.5110817 C46.75321681 44.59419591 51.70766125 49.71185804 56.38618469 55.16281128 C59.1296465 58.28600454 62.07629602 61.19941354 65.02734375 64.125 C65.66112442 64.75736572 66.29490509 65.38973145 66.94789124 66.04125977 C68.94205978 68.02989986 70.93970353 70.01500527 72.9375 72 C74.30296745 73.36044318 75.66820386 74.72111831 77.03320312 76.08203125 C80.35280886 79.3907031 83.67553273 82.69621322 87 86 C82.51569523 91.3789643 77.76332087 96.35541994 72.78515625 101.27734375 C71.62420692 102.43261314 71.62420692 102.43261314 70.43980408 103.61122131 C67.15678267 106.87802854 63.86782055 110.13883041 60.5793457 113.40014648 C58.16668469 115.79461138 55.75711573 118.19215797 53.34765625 120.58984375 C52.61515152 121.31405014 51.88264679 122.03825653 51.12794495 122.78440857 C47.12295543 126.77052197 43.32215072 130.8592133 39.63374329 135.13917542 C37.22297174 137.8850309 34.66287791 140.46219239 32.06640625 143.03125 C31.28220558 143.81332825 31.28220558 143.81332825 30.48216248 144.61120605 C28.84465002 146.24321078 27.20366151 147.87166574 25.5625 149.5 C24.4379167 150.61955632 23.31356595 151.73934629 22.18945312 152.859375 C19.46230656 155.57561534 16.73204093 158.28868292 14 161 C9.096024 156.88590566 4.47464193 152.61472792 -0.03686523 148.07666016 C-0.70113022 147.4125412 -1.3653952 146.74842224 -2.04978943 146.06417847 C-4.22177269 143.89150441 -6.39020279 141.71532128 -8.55859375 139.5390625 C-10.07294682 138.02284228 -11.58752237 136.50684424 -13.10231018 134.99105835 C-17.07138372 131.01818297 -21.03744381 127.04231269 -25.00286865 123.0657959 C-29.05672562 119.00167446 -33.11344637 114.94041378 -37.16992188 110.87890625 C-45.11607526 102.92205673 -53.05904577 94.96203806 -61 87 C-54.15494097 78.96277992 -47.00180963 71.26265538 -39.6730957 63.66381836 C-38.01909568 61.93281254 -36.38151513 60.18596408 -34.76098633 58.42358398 C-19.78128243 42.16480994 -19.78128243 42.16480994 -10.60969543 41.77159119 C-7.3130729 41.913659 -4.23167243 42.32588179 -1 43 C-2.44580966 46.31613882 -4.24829792 48.49185728 -6.80712891 51.03417969 C-7.58778717 51.81468689 -8.36844543 52.59519409 -9.17276001 53.39935303 C-10.01551483 54.23178528 -10.85826965 55.06421753 -11.7265625 55.921875 C-12.58937836 56.78186096 -13.45219421 57.64184692 -14.34115601 58.52789307 C-17.09778029 61.2733231 -19.86127799 64.0117169 -22.625 66.75 C-24.49524857 68.61021783 -26.36504589 70.47088946 -28.234375 72.33203125 C-32.8176936 76.89329945 -37.40667478 81.44881011 -42 86 C-37.19952552 91.78528662 -32.03121566 97.08379253 -26.69140625 102.37109375 C-25.80645981 103.25225357 -24.92151337 104.13341339 -24.00975037 105.04127502 C-20.72194089 108.31488284 -17.42963923 111.58395101 -14.13696289 114.85266113 C-10.90227215 118.06429456 -7.67148421 121.27982213 -4.44140625 124.49609375 C-3.59953262 125.32966904 -2.757659 126.16324432 -1.89027405 127.02207947 C2.95347683 131.84585423 7.58116784 136.78329426 12 142 C15.85308766 140.42476254 18.44743914 137.82252556 21.31933594 134.90771484 C22.09562096 134.1318679 22.09562096 134.1318679 22.8875885 133.34034729 C24.59130289 131.63524329 26.28782978 129.92317232 27.984375 128.2109375 C29.16649407 127.025087 30.34905645 125.83967826 31.53204346 124.6546936 C34.64028728 121.53882362 37.74247737 118.41699366 40.84344482 115.29388428 C44.01048502 112.10636381 47.18321387 108.9245168 50.35546875 105.7421875 C56.57589403 99.50033024 62.78993537 93.25216515 69 87 C65.0860028 82.27725162 60.98839426 77.9068893 56.53564453 73.69189453 C55.26169794 72.4741786 53.98812459 71.25607211 52.71487427 70.03762817 C52.04939701 69.40222233 51.38391975 68.76681648 50.69827652 68.11215591 C46.39526701 63.98856264 42.13301507 59.82276111 37.86467171 55.66334724 C34.12608636 52.0247162 30.37351531 48.40313809 26.58691406 44.81445312 C22.90474709 41.32312122 19.26660456 37.79085314 15.6538353 34.22780991 C14.27890717 32.88655371 12.88907301 31.56038853 11.48395157 30.25079727 C-0.59961023 18.96118102 -0.59961023 18.96118102 -0.91559029 9.88845634 C-0.81900219 6.54000617 -0.49642487 3.31365904 0 0 Z " fill="#F58324" transform="translate(185,70)"/>
<path d="M0 0 C1.10828168 0.94251204 2.21549425 1.8862813 3.32226562 2.83056641 C3.93896118 3.3559903 4.55565674 3.88141418 5.19104004 4.42276001 C7.73271888 6.63886075 10.11949957 8.9874981 12.5 11.375 C13.3765625 12.24898437 14.253125 13.12296875 15.15625 14.0234375 C17.27783265 16.19776978 19.27360018 18.4543963 21.25390625 20.7578125 C25.42385047 25.5656067 29.91566055 30.02552873 34.4375 34.5 C35.26443359 35.32242188 36.09136719 36.14484375 36.94335938 36.9921875 C38.95994959 38.99712113 40.97885236 40.99966253 43 43 C36.67441637 50.76885405 29.42289993 57.63971633 22.30688477 64.67260742 C13.52112504 73.34196129 13.52112504 73.34196129 5.26733398 82.51391602 C4 84 4 84 2 86 C-1.78652939 85.73010564 -3.62930141 83.7352421 -6.21777344 81.12280273 C-7.4485965 79.89163979 -7.4485965 79.89163979 -8.70428467 78.63560486 C-9.58046448 77.74394119 -10.45664429 76.85227753 -11.359375 75.93359375 C-12.26375305 75.02497086 -13.1681311 74.11634796 -14.09991455 73.18019104 C-16.50020753 70.76846236 -18.89135369 68.34785998 -21.28070068 65.92529297 C-23.72203361 63.45323168 -26.17191739 60.98967695 -28.62109375 58.52539062 C-33.42246174 53.69188105 -38.21421949 48.84894227 -43 44 C-38.37508621 38.44560076 -33.44639036 33.31474331 -28.3203125 28.22265625 C-27.50754852 27.41130722 -26.69478455 26.59995819 -25.85739136 25.76402283 C-23.28228262 23.1944741 -20.7037038 20.62844032 -18.125 18.0625 C-16.36956054 16.31208071 -14.61434983 14.561432 -12.859375 12.81054688 C-8.57555918 8.53770698 -4.28889528 4.26774101 0 0 Z " fill="#F58323" transform="translate(198,113)"/>
<path d="M0 0 C3.90851199 1.58431453 6.52367356 4.26635095 9.421875 7.2265625 C9.92672424 7.73424164 10.43157349 8.24192078 10.95172119 8.76498413 C12.55592096 10.38033842 14.15300856 12.00252209 15.75 13.625 C16.83938107 14.72441698 17.9292199 15.82338059 19.01953125 16.921875 C21.68501885 19.6093602 24.34415143 22.30299021 27 25 C22.0510009 30.95982408 16.72390794 36.45942623 11.25 41.9375 C10.38761719 42.81212891 9.52523437 43.68675781 8.63671875 44.58789062 C7.40115234 45.82635742 7.40115234 45.82635742 6.140625 47.08984375 C5.39329102 47.84128662 4.64595703 48.59272949 3.87597656 49.36694336 C2 51 2 51 0 51 C-1.41235352 49.56640625 -1.41235352 49.56640625 -3.06640625 47.5625 C-7.12214332 42.79277655 -11.4878254 38.40010667 -15.9375 34 C-16.71673828 33.22527344 -17.49597656 32.45054687 -18.29882812 31.65234375 C-20.1969242 29.76589243 -22.09733149 27.88183755 -24 26 C-19.35382024 20.40531783 -14.37171774 15.28332528 -9.1875 10.1875 C-7.65787536 8.68330553 -6.13041545 7.17690551 -4.60546875 5.66796875 C-3.93668701 5.01078857 -3.26790527 4.3536084 -2.57885742 3.67651367 C-0.9161474 2.07199422 -0.9161474 2.07199422 0 0 Z " fill="#FEFDFC" transform="translate(197,131)"/>
<path d="M0 0 C0.69480469 -0.020625 1.38960937 -0.04125 2.10546875 -0.0625 C8.23963359 -0.1087084 12.05872142 1.26623504 16.47265625 5.50390625 C21.14034003 13.26130978 17.97541124 25.82666498 16.5625 34.421875 C15.00333133 37.48936988 14.58719921 37.8454393 11.5703125 39.11328125 C7.04931631 40.48794984 2.6997266 40.73108937 -2 40.6875 C-2.77214844 40.70748047 -3.54429688 40.72746094 -4.33984375 40.74804688 C-9.65041763 40.74352339 -12.65915179 39.73964265 -16.875 36.25 C-19.0383006 33.50981924 -19.79852448 31.76347849 -20.3125 28.3125 C-19.66046314 23.74824197 -17.90782422 20.98325012 -14.390625 17.984375 C-7.68673007 13.77219323 0.53360194 14.91833698 8.125 15.25 C7.52316251 13.22954558 6.85193904 11.22888961 6.125 9.25 C0.1801837 6.27759185 -7.83165828 8.45938023 -13.875 10.25 C-13.215 7.28 -12.555 4.31 -11.875 1.25 C-7.82746262 0.23811566 -4.13405827 0.03034171 0 0 Z " fill="#074588" transform="translate(106.875,293.75)"/>
<path d="M0 0 C2.8180435 2.09546824 4.51990578 3.85369634 6.4375 6.8125 C6.72692494 9.60545066 6.82355897 11.86920383 6.6875 14.625 C6.605 16.996875 6.5225 19.36875 6.4375 21.8125 C-2.8025 21.8125 -12.0425 21.8125 -21.5625 21.8125 C-19.90705414 27.78898456 -19.90705414 27.78898456 -15.5625 30.8125 C-13.17921164 31.2104426 -13.17921164 31.2104426 -10.6875 31.0625 C-9.81609375 31.03671875 -8.9446875 31.0109375 -8.046875 30.984375 C-5.17194517 30.78548048 -2.38271138 30.40622871 0.4375 29.8125 C0.125 33.1875 0.125 33.1875 -0.5625 36.8125 C-4.34481944 39.33404629 -7.42825806 39.18000557 -11.8125 39.1875 C-12.55113281 39.21199219 -13.28976563 39.23648438 -14.05078125 39.26171875 C-19.69065219 39.29155934 -22.92388359 38.03327517 -27.5625 34.8125 C-32.14745577 29.40460345 -32.2294065 24.15684431 -32.0078125 17.19140625 C-31.03250448 9.79104279 -26.77181496 5.5586959 -21.2109375 0.94140625 C-15.51557213 -2.9589743 -6.22908266 -2.07636089 0 0 Z " fill="#074688" transform="translate(233.5625,295.1875)"/>
<path d="M0 0 C0.72058594 -0.00386719 1.44117188 -0.00773437 2.18359375 -0.01171875 C5.63315011 -0.00536598 8.82940191 0.03797026 12.125 1.125 C11.25 6.875 11.25 6.875 10.125 9.125 C9.485625 8.96 8.84625 8.795 8.1875 8.625 C3.73000586 7.89724585 -1.73465115 7.05482558 -5.875 9.125 C-5.875 10.445 -5.875 11.765 -5.875 13.125 C-3.83095188 14.72459575 -3.83095188 14.72459575 -1.1875 16 C3.40732089 18.59395562 6.31753737 20.63305979 9.125 25.125 C9.89545205 28.41693147 9.75578314 30.09809366 7.98046875 32.98828125 C4.75767391 37.09543141 2.28670036 38.83921117 -2.875 40.125 C-6.56640625 40.390625 -6.56640625 40.390625 -10.4375 40.375 C-11.71753906 40.38015625 -12.99757812 40.3853125 -14.31640625 40.390625 C-17.64414848 40.14223151 -19.89617957 39.56581142 -22.875 38.125 C-22 32.375 -22 32.375 -20.875 30.125 C-19.885 30.455 -18.895 30.785 -17.875 31.125 C-15.48009014 31.19470052 -13.08332309 31.20948003 -10.6875 31.1875 C-9.41519531 31.17847656 -8.14289063 31.16945313 -6.83203125 31.16015625 C-5.85621094 31.14855469 -4.88039063 31.13695312 -3.875 31.125 C-3.3215236 29.04946352 -2.875 27.28134036 -2.875 25.125 C-3.57625 24.8775 -4.2775 24.63 -5 24.375 C-9.70479886 22.32943528 -14.51487884 19.84524232 -16.875 15.125 C-17.68982529 10.07308318 -17.68982529 10.07308318 -16.875 7.125 C-11.97388308 1.19005373 -7.44737539 -0.03954359 0 0 Z " fill="#074688" transform="translate(262.875,293.875)"/>
<path d="M0 0 C1.06734375 0.0009668 1.06734375 0.0009668 2.15625 0.00195312 C5.66631673 0.03142197 8.5710576 0.3302644 12 1.1875 C11.34 3.8275 10.68 6.4675 10 9.1875 C9.38125 9.0225 8.7625 8.8575 8.125 8.6875 C3.74529271 7.98674683 -0.57428989 8.11015749 -5 8.1875 C-5.33 9.8375 -5.66 11.4875 -6 13.1875 C-5.32453125 13.57421875 -4.6490625 13.9609375 -3.953125 14.359375 C-3.06109375 14.88015625 -2.1690625 15.4009375 -1.25 15.9375 C-0.36828125 16.44796875 0.5134375 16.9584375 1.421875 17.484375 C7.56661552 21.54362783 7.56661552 21.54362783 8.56640625 25.3359375 C8.55931226 29.37951149 8.37489256 32.33226125 5.875 35.625 C1.02937011 39.94393099 -3.6466246 40.46536568 -10 40.4375 C-11.7634375 40.44523437 -11.7634375 40.44523437 -13.5625 40.453125 C-17.01937245 40.18600304 -19.77517473 39.42630483 -23 38.1875 C-22.25 32.4375 -22.25 32.4375 -20 30.1875 C-19.34 30.5175 -18.68 30.8475 -18 31.1875 C-15.62597499 31.25866382 -13.24999323 31.27159085 -10.875 31.25 C-9.59367187 31.24097656 -8.31234375 31.23195313 -6.9921875 31.22265625 C-5.51105469 31.20525391 -5.51105469 31.20525391 -4 31.1875 C-3.67 29.8675 -3.34 28.5475 -3 27.1875 C-3.75925781 26.64480469 -4.51851563 26.10210937 -5.30078125 25.54296875 C-6.29464844 24.82753906 -7.28851563 24.11210937 -8.3125 23.375 C-9.79169922 22.31345703 -9.79169922 22.31345703 -11.30078125 21.23046875 C-16.80250397 17.06635734 -16.80250397 17.06635734 -17.46875 14.1015625 C-17.52804617 9.75811833 -17.47443313 7.80689881 -14.75 4.25 C-9.74395966 0.49546975 -6.2364859 -0.10733083 0 0 Z " fill="#064588" transform="translate(297,293.8125)"/>
<path d="M0 0 C1.15822266 -0.01836914 1.15822266 -0.01836914 2.33984375 -0.03710938 C6.2482648 -0.04726991 8.17641928 -0.02822048 11.5 2.1875 C11.17 4.4975 10.84 6.8075 10.5 9.1875 C9.47519531 9.15269531 8.45039063 9.11789062 7.39453125 9.08203125 C6.03387064 9.05387965 4.6731922 9.02658096 3.3125 9 C2.30219727 8.96229492 2.30219727 8.96229492 1.27148438 8.92382812 C-3.20630671 8.85829948 -5.95976461 9.41518332 -9.5 12.1875 C-12.11525329 16.24565166 -13.20124748 19.37894587 -12.5 24.1875 C-10.2241177 28.41231746 -10.2241177 28.41231746 -6.5 31.1875 C-4.12597499 31.25866382 -1.74999323 31.27159085 0.625 31.25 C1.90632813 31.24097656 3.18765625 31.23195313 4.5078125 31.22265625 C5.98894531 31.20525391 5.98894531 31.20525391 7.5 31.1875 C6.51 34.1575 5.52 37.1275 4.5 40.1875 C1.79057607 40.29611833 -0.914439 40.37508577 -3.625 40.4375 C-4.38554687 40.47101563 -5.14609375 40.50453125 -5.9296875 40.5390625 C-12.46950475 40.65181797 -15.8012123 38.51145607 -20.75 34.25 C-24.47925986 29.85480088 -25.01363214 25.50498015 -24.87109375 19.87890625 C-23.93344022 13.07845065 -20.77643001 7.80064424 -15.375 3.625 C-10.37058763 0.18811757 -5.93689203 0.00495567 0 0 Z " fill="#074688" transform="translate(153.5,293.8125)"/>
<path d="M0 0 C1.18722656 -0.00515625 2.37445313 -0.0103125 3.59765625 -0.015625 C6.81238113 0.24004903 9.0462086 0.87267404 11.9375 2.25 C11.2775 4.56 10.6175 6.87 9.9375 9.25 C8.41769531 9.16298828 8.41769531 9.16298828 6.8671875 9.07421875 C-1.54570754 8.37847494 -1.54570754 8.37847494 -8.9375 11.625 C-11.61016368 14.92652572 -12.21550625 16.47195225 -12.25 20.625 C-12.27126953 21.78128906 -12.27126953 21.78128906 -12.29296875 22.9609375 C-12.03355568 25.53748088 -11.45590154 27.07425673 -10.0625 29.25 C-6.3257157 31.74118953 -4.31798181 31.4565226 0.125 31.375 C1.39730469 31.35695313 2.66960937 31.33890625 3.98046875 31.3203125 C4.95628906 31.29710937 5.93210938 31.27390625 6.9375 31.25 C6.2775 34.22 5.6175 37.19 4.9375 40.25 C2.24889069 40.35887507 -0.43523158 40.43770594 -3.125 40.5 C-3.87716797 40.53351563 -4.62933594 40.56703125 -5.40429688 40.6015625 C-11.1456109 40.70097919 -14.33539185 39.53088796 -19.0625 36.25 C-24.2247786 30.68017309 -24.47181632 25.918796 -24.40625 18.55078125 C-23.76101907 12.35509789 -20.61316437 8.47237433 -16.125 4.375 C-10.90163102 0.75062152 -6.29569234 -0.02740236 0 0 Z " fill="#064488" transform="translate(190.0625,293.75)"/>
<path d="M0 0 C2.3821875 0.0309375 2.3821875 0.0309375 4.8125 0.0625 C4.8125 3.3625 4.8125 6.6625 4.8125 10.0625 C1.22343775 11.85703113 0.00556287 12.35593623 -3.75 12.375 C-4.89662109 12.40013672 -4.89662109 12.40013672 -6.06640625 12.42578125 C-8.7108136 11.9728717 -9.5793613 11.17475741 -11.1875 9.0625 C-11.5625 6.5625 -11.5625 6.5625 -11.1875 4.0625 C-8.20606925 0.08725901 -4.69407772 -0.06096205 0 0 Z " fill="#F3F6F9" transform="translate(109.1875,314.9375)"/>
<path d="M0 0 C2 1.125 2 1.125 3 3 C3 4.98 3 6.96 3 9 C-2.94 9 -8.88 9 -15 9 C-11.78427859 0.96069647 -8.29467868 -0.93649598 0 0 Z " fill="#FBFCFD" transform="translate(228,301)"/>
</svg>
